<svg xmlns="http://www.w3.org/2000/svg" viewBox="0 0 800 500" width="100%" height="100%">
  <style>
    .main-text { font-family: 'Montserrat', 'Helvetica', 'Arial', sans-serif; font-size: 52px; font-weight: 700; fill: #0B2240; letter-spacing: 2px; }
    .sub-text { font-family: 'Montserrat', 'Helvetica', 'Arial', sans-serif; font-size: 18px; font-weight: 600; fill: #1A5FB4; letter-spacing: 4px; }
    .stroke-blue { stroke: #0B2240; stroke-width: 8; stroke-linecap: round; stroke-linejoin: round; fill: none; }
    .fill-blue { fill: #0B2240; }
  </style>

  <g transform="translate(0, -20)">
    <rect x="250" y="80" width="300" height="190" rx="18" class="stroke-blue" />
    <rect x="265" y="95" width="270" height="150" rx="8" stroke="#0B2240" stroke-width="3" fill="none" />
    
    <circle cx="400" cy="260" r="5" class="fill-blue" />

    <path d="M 370,270 L 360,315 C 360,315 375,320 400,320 C 425,320 440,315 440,315 L 430,270 Z" class="stroke-blue" fill="none" />
    <path d="M 340,320 L 460,320" stroke="#0B2240" stroke-width="8" stroke-linecap: round;" />

    <path d="M 450,320 L 450,305 L 455,305 L 455,290 L 458,290 L 458,300 L 463,300 L 463,285 L 467,285 L 467,305 L 472,305 L 472,280 L 474,275 L 476,280 L 476,308 L 482,308 L 482,295 L 485,295 L 485,320 Z" class="fill-blue" />
  </g>

  <text x="400" y="385" text-anchor="middle" class="main-text">CANUT PC</text>
  
  <text x="400" y="425" text-anchor="middle" class="sub-text">LYON • CROIX-ROUSSE</text>
</svg>
